<svg xmlns="http://www.w3.org/2000/svg" viewBox="0 0 760 190" width="760" height="190">
  <defs>
    <linearGradient id="stickGradEN" x1="0%" y1="0%" x2="100%" y2="100%">
      <stop offset="0%"   stop-color="#f5d97a"/>
      <stop offset="45%"  stop-color="#d4af37"/>
      <stop offset="100%" stop-color="#a07820"/>
    </linearGradient>
    <radialGradient id="ballTopEN" cx="35%" cy="35%">
      <stop offset="0%"   stop-color="#f8e68a"/>
      <stop offset="100%" stop-color="#c49a1e"/>
    </radialGradient>
    <radialGradient id="ballBotEN" cx="35%" cy="35%">
      <stop offset="0%"   stop-color="#e8c94a"/>
      <stop offset="100%" stop-color="#9a7010"/>
    </radialGradient>
    <clipPath id="circClipEN">
      <circle cx="96" cy="96" r="78"/>
    </clipPath>
  </defs>

  <!-- Background -->
  <rect width="760" height="190" fill="#0d1628"/>
  <!-- Top gold border -->
  <rect width="760" height="5" fill="#d4af37"/>

  <!-- ── CIRCULAR ICON ── -->
  <!-- Outer gold ring -->
  <circle cx="96" cy="96" r="82" fill="none" stroke="#d4af37" stroke-width="2.5"/>
  <!-- Inner dark disc -->
  <circle cx="96" cy="96" r="78" fill="#0c1c30"/>

  <!-- Network connection linEN -->
  <g clip-path="url(#circClipEN)" stroke="#2a7070" stroke-width="1.2" opacity="0.75">
    <line x1="96"  y1="22"  x2="52"  y2="60"/>
    <line x1="96"  y1="22"  x2="140" y2="60"/>
    <line x1="52"  y1="60"  x2="26"  y2="96"/>
    <line x1="52"  y1="60"  x2="96"  y2="82"/>
    <line x1="140" y1="60"  x2="164" y2="96"/>
    <line x1="140" y1="60"  x2="96"  y2="82"/>
    <line x1="26"  y1="96"  x2="52"  y2="134"/>
    <line x1="164" y1="96"  x2="140" y2="134"/>
    <line x1="52"  y1="134" x2="96"  y2="82"/>
    <line x1="140" y1="134" x2="96"  y2="82"/>
    <line x1="52"  y1="134" x2="96"  y2="168"/>
    <line x1="140" y1="134" x2="96"  y2="168"/>
    <line x1="96"  y1="82"  x2="96"  y2="22"/>
  </g>

  <!-- Network nodEN (teal bull's-eye circlEN) -->
  <g clip-path="url(#circClipEN)">
    <!-- Top -->
    <circle cx="96"  cy="22"  r="11" fill="#0c2235"/><circle cx="96"  cy="22"  r="7" fill="none" stroke="#4DB6AC" stroke-width="1.4"/><circle cx="96"  cy="22"  r="3" fill="#4DB6AC"/>
    <!-- Upper-left -->
    <circle cx="52"  cy="60"  r="11" fill="#0c2235"/><circle cx="52"  cy="60"  r="7" fill="none" stroke="#4DB6AC" stroke-width="1.4"/><circle cx="52"  cy="60"  r="3" fill="#4DB6AC"/>
    <!-- Upper-right -->
    <circle cx="140" cy="60"  r="11" fill="#0c2235"/><circle cx="140" cy="60"  r="7" fill="none" stroke="#4DB6AC" stroke-width="1.4"/><circle cx="140" cy="60"  r="3" fill="#4DB6AC"/>
    <!-- Left -->
    <circle cx="26"  cy="96"  r="9"  fill="#0c2235"/><circle cx="26"  cy="96"  r="5.5" fill="none" stroke="#4DB6AC" stroke-width="1.2"/><circle cx="26"  cy="96"  r="2.5" fill="#4DB6AC"/>
    <!-- Center -->
    <circle cx="96"  cy="82"  r="9"  fill="#0c2235"/><circle cx="96"  cy="82"  r="5.5" fill="none" stroke="#4DB6AC" stroke-width="1.2"/><circle cx="96"  cy="82"  r="2.5" fill="#4DB6AC"/>
    <!-- Right -->
    <circle cx="164" cy="96"  r="9"  fill="#0c2235"/><circle cx="164" cy="96"  r="5.5" fill="none" stroke="#4DB6AC" stroke-width="1.2"/><circle cx="164" cy="96"  r="2.5" fill="#4DB6AC"/>
    <!-- Lower-left -->
    <circle cx="52"  cy="134" r="11" fill="#0c2235"/><circle cx="52"  cy="134" r="7" fill="none" stroke="#4DB6AC" stroke-width="1.4"/><circle cx="52"  cy="134" r="3" fill="#4DB6AC"/>
    <!-- Lower-right -->
    <circle cx="140" cy="134" r="11" fill="#0c2235"/><circle cx="140" cy="134" r="7" fill="none" stroke="#4DB6AC" stroke-width="1.4"/><circle cx="140" cy="134" r="3" fill="#4DB6AC"/>
    <!-- Bottom -->
    <circle cx="96"  cy="168" r="9"  fill="#0c2235"/><circle cx="96"  cy="168" r="5.5" fill="none" stroke="#4DB6AC" stroke-width="1.2"/><circle cx="96"  cy="168" r="2.5" fill="#4DB6AC"/>
  </g>

  <!-- Golden diagonal stick (clipped to circle) -->
  <g clip-path="url(#circClipEN)">
    <line x1="128" y1="24" x2="62" y2="166" stroke="url(#stickGradEN)" stroke-width="8" stroke-linecap="round"/>
    <circle cx="128" cy="26"  r="7" fill="url(#ballTopEN)"/>
    <circle cx="62"  cy="164" r="6" fill="url(#ballBotEN)"/>
  </g>

  <!-- ── TEXT SECTION ── -->
  <!-- "MindEV" -->
  <text x="202" y="76" font-family="'Segoe UI',Arial,sans-serif" font-weight="800" font-size="54" fill="#ffffff">Mind</text>
  <text x="338" y="76" font-family="'Segoe UI',Arial,sans-serif" font-weight="800" font-size="54" fill="#d4af37">EV</text>

  <!-- Teal underline -->
  <rect x="202" y="84" width="538" height="3.5" fill="#4DB6AC"/>

  <!-- Slogan EN -->
  <text x="202" y="122" font-family="'Segoe UI',Arial,sans-serif" font-weight="700" font-size="27" fill="#4DB6AC">Your EV+ starts in your mind.</text>

  <!-- Subtitle -->
  <text x="202" y="154" font-family="'Segoe UI',Arial,sans-serif" font-weight="600" font-size="17" fill="#d4af37" letter-spacing="1.5">DIAGNÓSTICO MENTAL + TÉCNICO + IA</text>
</svg>
